<svg data-v-2e17ba0e="" width="20px" height="20px" viewBox="0 0 20 20" version="1.1" xmlns="http://www.w3.org/2000/svg" xmlns:xlink="http://www.w3.org/1999/xlink"><defs data-v-2e17ba0e=""><rect data-v-2e17ba0e="" id="path-1" x="0" y="0" width="20" height="20"></rect></defs> <g data-v-2e17ba0e="" id="Hashed" stroke="none" stroke-width="1" fill="none" fill-rule="evenodd"><g data-v-2e17ba0e="" id="Group"><g data-v-2e17ba0e="" id="Path-2-+-Path-2-+-Path-2-+-Path-2-+-Path-2-+-Path-2-+-Path-2-+-Path-2-+-Path-2-+-Path-2-+-Path-2-+-Path-2-+-Path-2-Mask"><mask data-v-2e17ba0e="" id="mask-2" fill="white"><use data-v-2e17ba0e="" xlink:href="#path-1"></use></mask> <g data-v-2e17ba0e="" id="Mask"></g> <line data-v-2e17ba0e="" x1="20" y1="-7.07767178e-15" x2="0" y2="20" id="Path-2" stroke="#FFFFFF" stroke-linecap="square" mask="url(#mask-2)"></line> <line data-v-2e17ba0e="" x1="17" y1="-7.07767178e-15" x2="-3" y2="20" id="Path-2" stroke="#FFFFFF" stroke-linecap="square" mask="url(#mask-2)"></line> <line data-v-2e17ba0e="" x1="14" y1="-7.07767178e-15" x2="-6" y2="20" id="Path-2" stroke="#FFFFFF" stroke-linecap="square" mask="url(#mask-2)"></line> <line data-v-2e17ba0e="" x1="11" y1="-7.07767178e-15" x2="-9" y2="20" id="Path-2" stroke="#FFFFFF" stroke-linecap="square" mask="url(#mask-2)"></line> <line data-v-2e17ba0e="" x1="8" y1="-7.07767178e-15" x2="-12" y2="20" id="Path-2" stroke="#FFFFFF" stroke-linecap="square" mask="url(#mask-2)"></line> <line data-v-2e17ba0e="" x1="5" y1="-7.07767178e-15" x2="-15" y2="20" id="Path-2" stroke="#FFFFFF" stroke-linecap="square" mask="url(#mask-2)"></line> <line data-v-2e17ba0e="" x1="2" y1="-7.07767178e-15" x2="-18" y2="20" id="Path-2" stroke="#FFFFFF" stroke-linecap="square" mask="url(#mask-2)"></line> <line data-v-2e17ba0e="" x1="23" y1="-7.07767178e-15" x2="3" y2="20" id="Path-2" stroke="#FFFFFF" stroke-linecap="square" mask="url(#mask-2)"></line> <line data-v-2e17ba0e="" x1="26" y1="-7.07767178e-15" x2="6" y2="20" id="Path-2" stroke="#FFFFFF" stroke-linecap="square" mask="url(#mask-2)"></line> <line data-v-2e17ba0e="" x1="29" y1="-7.07767178e-15" x2="9" y2="20" id="Path-2" stroke="#FFFFFF" stroke-linecap="square" mask="url(#mask-2)"></line> <line data-v-2e17ba0e="" x1="32" y1="-7.07767178e-15" x2="12" y2="20" id="Path-2" stroke="#FFFFFF" stroke-linecap="square" mask="url(#mask-2)"></line> <line data-v-2e17ba0e="" x1="35" y1="-7.07767178e-15" x2="15" y2="20" id="Path-2" stroke="#FFFFFF" stroke-linecap="square" mask="url(#mask-2)"></line> <line data-v-2e17ba0e="" x1="38" y1="-7.07767178e-15" x2="18" y2="20" id="Path-2" stroke="#FFFFFF" stroke-linecap="square" mask="url(#mask-2)"></line></g></g></g></svg>